<?xml version="1.0" standalone="no"?>
<!DOCTYPE svg PUBLIC "-//W3C//DTD SVG 20010904//EN"
 "http://www.w3.org/TR/2001/REC-SVG-20010904/DTD/svg10.dtd">
<svg version="1.0" xmlns="http://www.w3.org/2000/svg"
 width="1000.000000pt" height="1171.000000pt" viewBox="0 0 1000.000000 1171.000000"
 preserveAspectRatio="xMidYMid meet">

<g transform="translate(0.000000,1171.000000) scale(0.100000,-0.100000)"
fill="#000000" stroke="none">
<path d="M8805 11665 c-817 -236 -1590 -760 -2299 -1558 -38 -43 -84 -84 -101
-91 -48 -20 -105 -84 -118 -133 -12 -46 -20 -50 -77 -33 -150 44 -530 107
-790 131 -175 17 -667 17 -840 0 -865 -81 -1627 -346 -2329 -808 -645 -425
-1196 -1009 -1586 -1683 -478 -826 -718 -1850 -655 -2792 62 -913 337 -1728
833 -2473 188 -282 358 -488 626 -756 324 -323 600 -540 981 -769 832 -501
1882 -755 2852 -690 1095 74 2064 460 2908 1158 148 123 499 474 622 622 638
771 1016 1649 1132 2630 72 603 32 1205 -119 1809 -301 1199 -1056 2260 -2096
2944 -173 114 -371 229 -534 309 -66 32 -122 63 -123 69 -2 5 22 44 54 87 255
341 577 656 906 885 292 204 639 382 998 513 123 45 150 59 178 91 126 144 46
465 -141 557 -69 35 -106 33 -282 -19z m74 -141 c-33 -178 34 -331 167 -379
80 -28 81 -29 39 -33 -57 -5 -118 15 -164 54 -84 72 -122 216 -87 325 17 51
45 103 52 96 2 -2 -1 -30 -7 -63z m219 -6 c43 -45 62 -97 62 -168 0 -55 -3
-65 -29 -91 -34 -34 -54 -36 -97 -10 -48 29 -79 102 -79 183 0 57 4 70 24 92
35 37 78 35 119 -6z m-353 -250 c4 -18 17 -52 30 -75 l23 -41 -47 -17 c-72
-27 -342 -158 -444 -216 -154 -87 -425 -271 -567 -385 -298 -240 -643 -609
-874 -937 -54 -75 -49 -74 -142 -31 -28 13 -67 38 -87 56 l-37 33 104 128
c415 510 881 908 1444 1231 195 112 544 284 579 286 6 0 14 -15 18 -32z
m-2323 -1500 c74 -141 232 -254 421 -303 83 -22 88 -24 47 -24 -171 -2 -353
93 -440 228 -27 43 -75 161 -65 161 2 0 19 -28 37 -62z m-1057 -283 c225 -20
576 -72 593 -89 2 -3 -25 -51 -60 -108 -96 -155 -147 -245 -246 -443 -82 -164
-192 -410 -192 -431 0 -5 -62 -40 -137 -79 l-138 -70 -142 -245 c-79 -135
-196 -335 -260 -445 -64 -110 -121 -206 -127 -212 -9 -10 -45 -6 -171 19
l-160 31 -232 -103 -231 -103 -20 -71 c-10 -39 -45 -177 -77 -308 l-59 -236
33 -214 c18 -117 36 -216 39 -219 4 -3 84 -37 178 -74 l171 -67 27 -130 c15
-72 25 -132 24 -134 -2 -2 -55 -24 -118 -49 -183 -73 -415 -204 -673 -378 -86
-58 -157 -117 -256 -216 -224 -222 -370 -402 -586 -719 -102 -151 -124 -178
-178 -214 -187 -127 -589 -286 -1033 -409 -199 -55 -605 -149 -616 -142 -10 5
-52 146 -91 308 -130 530 -161 1122 -86 1674 245 1822 1594 3321 3384 3761
249 61 553 108 805 123 155 9 484 5 635 -8z m1169 -25 c25 -17 75 -44 111 -61
l67 -30 -17 -25 c-106 -162 -273 -464 -385 -697 -84 -174 -230 -510 -230 -529
0 -16 -81 -2 -134 22 -24 12 -61 36 -82 54 l-38 33 19 49 c81 215 250 569 380
799 66 118 253 415 260 415 2 0 24 -14 49 -30z m397 -394 c701 -328 1345 -880
1791 -1536 704 -1034 943 -2301 667 -3535 -181 -806 -599 -1564 -1189 -2156
-255 -257 -450 -417 -716 -592 -781 -514 -1646 -763 -2585 -745 -126 2 -231 7
-234 10 -5 5 92 682 120 840 2 16 72 112 161 223 l156 195 783 0 783 0 156 66
c86 36 156 69 156 74 0 4 13 86 29 181 17 96 50 300 75 454 55 335 132 807
226 1385 39 234 100 605 135 825 36 220 68 412 71 426 4 22 12 28 45 33 36 6
39 9 40 39 0 17 15 174 33 347 18 173 30 320 27 326 -3 6 -243 271 -533 588
l-528 576 0 392 0 391 -81 156 -82 155 28 86 c45 139 113 325 161 438 77 180
187 402 199 402 7 0 54 -20 106 -44z m-1453 -860 c285 -219 592 -328 876 -312
l110 7 -19 -21 c-24 -27 -108 -65 -173 -79 -77 -16 -270 -14 -358 5 -293 60
-487 212 -502 391 -2 29 -1 53 3 53 3 0 32 -20 63 -44z m619 -600 c5 -5 -73
-593 -83 -627 -3 -12 172 -177 611 -574 339 -307 614 -563 612 -569 -2 -6 -22
-132 -43 -281 -43 -304 -52 -308 -53 -23 -1 86 -5 168 -10 181 -5 13 -254 259
-553 547 -298 288 -569 548 -600 579 l-57 56 14 305 c8 168 15 332 15 364 l0
59 71 -6 c39 -3 74 -8 76 -11z m-684 -299 c111 -51 199 -158 232 -282 42 -161
-2 -323 -119 -441 -92 -92 -212 -130 -332 -103 l-59 13 78 7 c146 13 264 97
328 233 55 119 55 277 -1 390 -17 34 -27 52 -24 41 17 -51 16 -207 -1 -271
-59 -217 -270 -348 -470 -290 -72 21 -105 54 -135 131 -52 135 -34 307 45 426
106 160 296 220 458 146z m-985 -8 l33 -14 -96 -115 c-53 -63 -100 -116 -105
-118 -12 -4 -230 99 -230 109 0 5 66 43 148 84 157 80 176 84 250 54z m128
-245 l-75 -199 -41 -470 c-23 -258 -44 -476 -46 -484 -4 -12 -119 102 -177
175 -17 23 -16 31 59 431 l76 408 135 173 c75 95 137 171 139 169 2 -2 -29
-93 -70 -203z m-409 -362 c-23 -127 -35 -172 -45 -172 -19 0 -274 81 -285 90
-5 4 50 13 121 20 l129 13 53 114 c29 62 54 112 56 110 2 -1 -11 -80 -29 -175z
m819 -852 c185 -66 341 -120 348 -120 7 0 110 32 231 70 120 39 220 69 222 67
3 -3 -167 -165 -302 -288 l-30 -28 -285 79 c-157 44 -345 96 -417 116 l-133
36 0 57 c0 70 10 131 21 131 5 0 160 -54 345 -120z m-284 -291 l383 -81 160
-113 c88 -62 170 -121 182 -131 17 -15 29 -50 53 -159 64 -296 160 -560 283
-778 27 -49 47 -90 46 -91 -25 -21 -100 -59 -148 -76 -268 -90 -533 134 -690
585 l-39 110 -153 6 c-85 4 -216 8 -292 9 l-139 3 -42 -124 c-124 -362 -323
-716 -603 -1073 -43 -54 -85 -108 -93 -120 -18 -25 -32 -36 244 188 108 87
199 157 201 154 4 -3 -233 -1321 -250 -1397 l-6 -23 -237 5 c-166 3 -277 11
-369 25 l-132 21 -62 -25 c-103 -42 -394 -191 -797 -408 -211 -113 -386 -206
-390 -206 -4 0 -35 28 -68 63 -202 209 -410 482 -582 767 -157 259 -379 734
-351 751 7 4 39 12 73 19 124 24 536 131 696 181 324 100 570 197 804 317
l130 67 415 522 416 521 225 150 c246 163 399 256 542 328 73 37 191 91 205
94 1 0 174 -37 385 -81z m1651 36 c285 -14 288 -15 322 -41 19 -14 35 -29 35
-33 0 -3 -67 -37 -148 -75 l-147 -69 -230 33 c-126 17 -240 34 -252 37 -21 5
-23 10 -23 84 l0 79 78 0 c42 0 207 -7 365 -15z m-268 -289 l150 -22 -49 -30
c-94 -56 -201 -141 -252 -198 l-51 -59 -67 23 c-36 12 -66 24 -66 26 0 2 32
67 70 144 60 119 74 140 93 139 12 0 90 -11 172 -23z m815 -164 c0 -9 -53
-326 -209 -1252 -44 -261 -116 -691 -161 -955 -44 -264 -82 -490 -85 -503 l-5
-22 -467 0 c-283 0 -463 4 -458 9 6 5 114 48 240 96 127 48 241 96 253 108 94
87 148 313 104 440 l-19 59 34 51 c107 159 136 297 97 467 l-15 69 43 53 c77
94 115 217 105 335 -6 62 -37 142 -63 164 -8 6 -14 15 -14 19 0 4 37 35 83 68
45 33 107 84 138 113 l57 54 32 209 c30 190 32 217 22 290 -6 45 -7 84 -4 88
4 4 43 13 87 22 44 8 89 17 100 19 37 8 105 7 105 -1z m-406 -107 c15 -23 14
-36 -19 -222 l-36 -197 -44 -50 c-24 -28 -63 -73 -87 -99 l-43 -48 -159 -17
-159 -16 -19 24 c-36 44 -77 136 -123 274 -25 74 -45 142 -45 149 0 12 39 16
216 22 l215 7 16 33 c16 34 81 77 203 134 36 17 66 31 66 31 1 0 9 -11 18 -25z
m381 -1680 c-118 -644 -218 -1182 -221 -1197 l-6 -28 -654 0 c-360 0 -654 2
-654 5 0 18 26 55 39 55 9 0 282 12 608 27 578 26 592 27 597 47 2 12 116 529
252 1149 137 620 250 1124 251 1120 2 -5 -94 -535 -212 -1178z m-2393 1049
c-6 -97 -214 -2209 -217 -2212 -2 -3 -45 13 -95 34 -68 29 -90 43 -90 57 0 21
267 2111 276 2163 l6 32 61 -18 62 -17 -3 -39z m440 -26 c64 -21 71 -26 124
-94 30 -40 99 -114 152 -166 189 -181 380 -240 538 -167 70 33 162 130 202
212 l33 69 102 -8 c78 -5 104 -10 112 -23 55 -88 43 -206 -34 -332 -59 -99
-52 -94 -300 -189 -128 -50 -241 -90 -250 -90 -10 0 -213 69 -452 154 l-434
155 -46 49 c-55 60 -74 117 -67 205 8 100 63 187 141 226 54 27 94 26 179 -1z
m235 -779 l411 -151 229 80 c125 44 236 83 246 87 13 6 21 -2 37 -36 11 -24
20 -60 20 -79 0 -74 -41 -185 -112 -302 l-40 -68 -97 -29 c-331 -101 -406
-122 -425 -117 -45 11 -723 330 -761 357 -144 106 -144 318 0 397 11 6 34 12
50 12 17 0 215 -68 442 -151z m-43 -603 l305 -124 263 69 c145 38 266 69 270
69 13 0 40 -48 48 -84 11 -51 -6 -117 -48 -182 l-37 -57 -258 -102 -258 -102
-305 127 c-167 70 -322 140 -343 154 -63 44 -111 131 -111 199 0 54 36 113 83
136 23 12 52 21 64 21 12 0 159 -56 327 -124z m-1983 -765 c203 -42 290 -54
433 -60 l148 -6 84 -233 83 -233 -10 -147 c-8 -116 -25 -217 -80 -482 -39
-184 -72 -342 -75 -352 -4 -14 -20 -11 -132 26 -385 130 -767 321 -1111 556
-127 87 -342 255 -430 336 l-53 49 63 36 c35 20 222 124 414 231 193 108 391
219 440 247 50 28 100 51 111 51 12 0 64 -9 115 -19z m1036 -177 c156 -74 358
-112 538 -101 90 6 290 38 330 53 34 14 10 -23 -67 -100 -91 -89 -178 -140
-298 -172 -80 -21 -243 -24 -320 -5 -141 34 -265 123 -325 232 -30 55 -55 138
-55 181 l0 28 63 -41 c34 -22 94 -56 134 -75z m53 -658 c50 -19 93 -36 95 -38
2 -2 -16 -154 -39 -338 l-41 -335 -129 -3 c-101 -2 -127 0 -124 10 3 7 31 176
64 376 37 234 62 362 70 362 6 0 53 -15 104 -34z"/>
</g>
</svg>
